<svg id="Layer_1" data-name="Layer 1" xmlns="http://www.w3.org/2000/svg" xmlns:xlink="http://www.w3.org/1999/xlink" viewBox="0 0 418.13 417.81"><defs><style>.cls-1{fill:#5e1ec2;}.cls-2{fill:#8855ef;}.cls-3{fill:#a249cd;}.cls-4{fill:#ffabc4;}.cls-5{fill:#ffbfd0;}.cls-6{fill:url(#linear-gradient);}.cls-7{fill:#ff95a8;}</style><linearGradient id="linear-gradient" x1="780.02" y1="741.06" x2="847.02" y2="736.4" gradientUnits="userSpaceOnUse"><stop offset="0" stop-color="#ff70a8"/><stop offset="1" stop-color="#ff95a8"/></linearGradient></defs><title>a_1</title><circle class="cls-1" cx="271.14" cy="146.99" r="146.99"/><circle class="cls-2" cx="279.32" cy="333.96" r="83.85"/><circle class="cls-3" cx="63.37" cy="180.9" r="60.78"/><path class="cls-4" d="M851.15,787.54h-2.33l-.15-.3a203.57,203.57,0,0,0,2.83-29.17c.17-14.33-6.17-16.17-6.17-16.17l-3,23.5L844,788.74a1.31,1.31,0,0,0,0,.15,1.33,1.33,0,0,0,0,.34v.17h0a1.35,1.35,0,0,0,1.24.83h5.86a1.35,1.35,0,0,0,0-2.7Z" transform="translate(-781.94 -389.71)"/><path class="cls-5" d="M835.46,770.42c14.89-7.53,27.42-21.35,30.87-39.61l-2.91-3.48s-4-6.75-7.75-5.25-39.5,29.5-40.25,30.25,2.75,35.25,2.75,35.25h10.37a30.73,30.73,0,0,0,6.77-15.64C835.37,771.43,835.41,770.92,835.46,770.42Z" transform="translate(-781.94 -389.71)"/><path class="cls-6" d="M855.7,682c0,.16,0,.32,0,.48,0,27.53-26.3,51.73-36.71,59.39-.5.37-1,.69-1.4,1l-3.66,1.82a1.87,1.87,0,0,1-2.45-1.23c4.4-7.69,22.1-40.77,3.56-45.4-21-5.25-28.75,2.42-31.75,7.46s-.75,11,4,10,21.25-17.25,26.75-7c5.28,9.83-17.5,32.77-22.24,39.7a31.79,31.79,0,0,0-6.95,17.61h0q-.13,1.45-.13,2.93a31,31,0,0,0,8.1,21.19h36l0-.05a1.32,1.32,0,0,0,1.08-1.28v-.51a1.34,1.34,0,0,0-1.33-1.33h-8.25l-.13,0c-.51-.09-.76-.26-.6-.57,8.14-16.08,9.8-21.79,7.88-27.75-1.24-3.83-8.92-3.44-10.86-4.42a1.17,1.17,0,0,1,.09-.53c.06-.06.38-.33.89-.73,3.36-1,11.7-1.7,12.64-.56,1.13,1.38,1.75,22.88,2.75,28.25a29.61,29.61,0,0,0,3,8.63,1.32,1.32,0,0,0,1.28,1.06h8.25a1.34,1.34,0,0,0,1.33-1.33,1.31,1.31,0,0,0-.32-.83c-.11-.79-1.88-.42-3.66-.53-2-.12-2.87-22-2.87-27.25s.76-6.27,4.26-13.15c3.15-6.18,2.92-15.56,5.56-19a14.81,14.81,0,0,1,7.16-4.81c3.75-1.5,7.12,5.58,7.12,5.58l1.93,3a68,68,0,0,0,1.36-13.16A62.23,62.23,0,0,0,855.7,682Z" transform="translate(-781.94 -389.71)"/><path class="cls-7" d="M875.09,688.66c-1.76-6.19-9.91-9.3-18.21-6.95-.62.18-1.22.39-1.81.61-1.85-1.16-8.19-4.94-10.15-3.51-2.3,1.69.43,12.45.43,12.45h0a9.39,9.39,0,0,0-.32,5.92c1.76,6.19,9.91,9.3,18.21,6.95S876.84,694.85,875.09,688.66Z" transform="translate(-781.94 -389.71)"/></svg>