<?xml version="1.0" encoding="utf-8"?>
<!-- Generator: Adobe Illustrator 21.1.0, SVG Export Plug-In . SVG Version: 6.00 Build 0)  -->
<svg version="1.1" id="Layer_1" xmlns="http://www.w3.org/2000/svg" xmlns:xlink="http://www.w3.org/1999/xlink" x="0px" y="0px"
	 viewBox="0 0 82 100" style="enable-background:new 0 0 82 100;" xml:space="preserve">
<style type="text/css">
	.st0{fill:none;stroke:#353535;stroke-miterlimit:10;}
	.st1{fill:#BAEEF7;stroke:#353535;stroke-miterlimit:10;}
	.st2{fill:#353535;}
</style>
<g>
	<g>
		<polygon class="st0" points="41.3,1.2 1.5,26.4 40.4,49.9 80.2,26.4 		"/>
		<polygon class="st1" points="41.3,49.9 1.5,75 40.4,98.6 80.2,75 		"/>
		<line class="st0" x1="40.4" y1="49.9" x2="40.4" y2="98.6"/>
		<line class="st0" x1="0.7" y1="26.3" x2="0.7" y2="75"/>
		<line class="st0" x1="81" y1="26.3" x2="81" y2="75"/>
	</g>
	<g>
		<path class="st2" d="M5.1,29.1L1.8,26L41.6,1l3.3,3.1L34.2,15.3L36,18L49.2,6.5l5,3.7L18.2,36.9l-3.4-3.2L32,21l-1.3-2L5.1,29.1z"
			/>
		<path class="st2" d="M35.4,46.4c0.5-0.8,1.5-2.3,3.5-4.5l3.9-4.1c2.3-2.4,2.5-3.9,1-5.4l-1.1-1.1L31,43.7L23,39l32-29l7,5
			c25,14,22,13-3.7,13.1l-2,2c-2.6,2.7-4.9,3.8-7.2,3.2c0.8,2.4-0.5,4.9-3.1,7.6l-3.8,4C41,46.3,40.6,48.7,40,50L35.4,46.4z M55,21
			l-8,7l0.5,0.9c1.2,1.2,3.6,2.2,5.6,0.1l2.4-2.6c1.8-1.9,1-4.2-0.1-5.3L55,21z"/>
	</g>
</g>
</svg>
