<?xml version="1.0" encoding="utf-8"?>
<!-- Generator: Adobe Illustrator 21.1.0, SVG Export Plug-In . SVG Version: 6.00 Build 0)  -->
<svg version="1.1" id="Layer_1" xmlns="http://www.w3.org/2000/svg" xmlns:xlink="http://www.w3.org/1999/xlink" x="0px" y="0px"
	 viewBox="0 0 1199 820.2" style="enable-background:new 0 0 1199 820.2;" xml:space="preserve">
<style type="text/css">
	.st0{fill:#A249CD;}
	.st1{fill:#8F47BC;}
	.st2{fill:#6641E0;}
	.st3{opacity:0.54;fill:#8855EF;enable-background:new    ;}
	.st4{fill:#EC60FF;}
	.st5{fill:#CC53FF;}
	.st6{fill:#4ACFFF;}
	.st7{fill:#FFD4F9;}
	.st8{fill:#FFC3EB;}
	.st9{fill:#3E248B;}
	.st10{fill:#FFBFE9;}
	.st11{fill:url(#SVGID_1_);}
	.st12{fill:url(#SVGID_2_);}
	.st13{fill:#FFE4EB;}
	.st14{fill:#FFB2B3;}
	.st15{fill:#F79887;}
	.st16{fill:#FFD5F9;}
	.st17{fill:#8B86FF;}
	.st18{fill:#8FACFF;}
	.st19{fill:#F0EEFF;}
	.st20{fill:#662CBC;}
	.st21{fill:#5E1EC2;}
	.st22{fill:#48D0FF;}
	.st23{fill:url(#SVGID_3_);}
	.st24{fill:url(#SVGID_4_);}
	.st25{fill:url(#SVGID_5_);}
	.st26{fill:#FFFFFE;}
	.st27{fill:#EAECEA;}
</style>
<title>main</title>
<circle class="st0" cx="1253.8" cy="316.2" r="191.6"/>
<path class="st1" d="M367.2,571.7v248c0,11.4-9.3,20.7-20.7,20.7h-49.5c-11.4,0-20.7-9.3-20.7-20.7v-248c0-11.4,9.3-20.7,20.7-20.7
	h49.5C357.9,551,367.2,560.2,367.2,571.7z"/>
<path class="st1" d="M868.2,571.7v248c0,11.4-9.3,20.7-20.7,20.7H798c-11.4,0-20.7-9.3-20.7-20.7v-248c0-11.4,9.3-20.7,20.7-20.7
	h49.5C859,551,868.2,560.3,868.2,571.7z"/>
<path class="st1" d="M387.9,422h367.4c11.4,0,20.7,9.3,20.7,20.7v183.2c0,11.4-9.3,20.7-20.7,20.7H387.9c-11.4,0-20.7-9.3-20.7-20.7
	V442.7C367.2,431.2,376.5,422,387.9,422z"/>
<path class="st2" d="M387.9,444.2h367.4c11.4,0,20.7,9.3,20.7,20.7v137.7c0,11.4-9.3,20.7-20.7,20.7H387.9
	c-11.4,0-20.7-9.3-20.7-20.7V464.9C367.2,453.4,376.5,444.2,387.9,444.2z"/>
<path class="st2" d="M387.9,646.6h367.4c11.4,0,20.7,9.3,20.7,20.7v63.8c0,11.4-9.3,20.7-20.7,20.7H387.9
	c-11.4,0-20.7-9.3-20.7-20.7v-63.8C367.2,655.9,376.5,646.6,387.9,646.6z"/>
<path class="st2" d="M868.2,588.4v248c0,11.4-9.3,20.7-20.7,20.7h-50.7c-11.4,0-20.7-9.3-20.7-20.7v-248c0-11.4,9.3-20.7,20.7-20.7
	h50.7C859,567.7,868.2,577,868.2,588.4z"/>
<path class="st2" d="M367.2,588.4v248c0,11.4-9.3,20.7-20.7,20.7h-49.5c-11.4,0-20.7-9.3-20.7-20.7v-248c0-11.4,9.3-20.7,20.7-20.7
	h49.5C357.9,567.7,367.2,576.9,367.2,588.4z"/>
<path class="st2" d="M387.9,754.9h367.4c11.4,0,20.7,9.3,20.7,20.7v63.8c0,11.4-9.3,20.7-20.7,20.7H387.9
	c-11.4,0-20.7-9.3-20.7-20.7v-63.8C367.2,764.2,376.5,754.9,387.9,754.9z"/>
<path class="st3" d="M626.7,754.9c-0.2-1-0.4-2-0.6-3c-9-44.5-39.2-82.4-81-105.3c-28.4-15.4-60.3-23.4-92.6-23.3
	c-25.8-0.1-51.3,5-75.2,14.9c-3.5,1.4-6.8,3-10.2,4.6c-54.2,26.6-91,77.8-91,136.7c0,18,3.5,35.9,10.3,52.6
	c3.3,8.2,7.4,16.2,12.2,23.7c2.9,0.9,6,1.3,9,1.3h28c17.4,0,31.4-14.1,31.5-31.5v3c0,17.4,14.1,31.4,31.5,31.5h205
	c16.1-23.5,25.3-51.2,25.3-80.7C628.9,771.3,628.1,763,626.7,754.9z"/>
<polygon class="st4" points="893.9,510.7 881,847.2 903.3,847.2 963.5,579.2 986.5,847.2 1017.5,847.2 1025.7,517.7 "/>
<path class="st5" d="M893.3,510.7l-0.4,19c0,0,28.1,11.6,52.4,10.1s69.6-2.2,81.5-14.4C1041.2,510.7,893.3,510.7,893.3,510.7z"/>
<path class="st6" d="M941.6,297.3h38.5c0,0,73.9,2.5,74.3,70.9s-19.1,87-22.9,91.1s-3.7,68.8-3.7,68.8s-32.5,3.5-54.6,4.5
	s-83.8-7.6-83.8-14.2s8.8-132.1,8.8-132.1l-38.1-21.8C860.1,364.6,870.7,294.8,941.6,297.3z"/>
<path class="st7" d="M971.9,297.2v-38.6h-29.3v38.6h-9.4c0,10.5,10.8,40.2,24.1,40.2s24.1-29.7,24.1-40.2H971.9z"/>
<polygon class="st8" points="971.9,258.7 942.6,258.7 942.6,276.7 971.9,286.4 "/>
<path class="st7" d="M937,221.9c0,0-16.2,49.6,9.1,52.6c25.3,3,27.3-14.2,27.3-14.2l9.1-29.3L937,221.9z"/>
<path class="st9" d="M963.8,203.6c-11.2-4-24.3-7.6-28.3,5.1s4.6,17.7,23.3,23.3s14.7,12,12.7,18.9c-2,6.9-19.1,40.3,1.8,46.4
	s28.2,3.9,28.2,3.9s9.9-30.7,2.4-60S979.5,209.2,963.8,203.6z"/>
<path class="st10" d="M860,364.4l38.5,20.9l-3.4,45.7c0,0-18.8,31-31.3,24.9S833.7,445.2,860,364.4z"/>
<linearGradient id="SVGID_1_" gradientUnits="userSpaceOnUse" x1="1091.5901" y1="-61.78" x2="1092.4202" y2="183.01" gradientTransform="matrix(1 0 0 -1 0 822)">
	<stop  offset="0" style="stop-color:#FFFFFF"/>
	<stop  offset="1" style="stop-color:#FFCBDC"/>
</linearGradient>
<rect x="970.7" y="613.9" class="st11" width="242.9" height="239"/>
<linearGradient id="SVGID_2_" gradientUnits="userSpaceOnUse" x1="561.0278" y1="-69.54" x2="561.8778" y2="181.93" gradientTransform="matrix(1 0 0 -1 0 822)">
	<stop  offset="0" style="stop-color:#FFFFFF"/>
	<stop  offset="1" style="stop-color:#FFCBDC"/>
</linearGradient>
<rect x="551.5" y="613.9" class="st12" width="20.2" height="246.2"/>
<path class="st13" d="M550.6,641.1h660.8c23.3,0,42.3-12.2,42.3-27.1H508.3C508.3,628.9,527.3,641.1,550.6,641.1z"/>
<circle class="st14" cx="725.1" cy="237.8" r="0"/>
<path class="st14" d="M917.2,342.7h17.6c5.6,0,10.2,4.6,10.2,10.2v46c0,5.6-4.6,10.2-10.2,10.2h-17.6c-5.6,0-10.2-4.6-10.2-10.2v-46
	C907.1,347.3,911.6,342.7,917.2,342.7z"/>
<path class="st15" d="M931.8,348.8h6.3c0.9,0,1.6,0.7,1.6,1.6v1.7c0,0.9-0.7,1.6-1.6,1.6h-6.3c-0.9,0-1.6-0.7-1.6-1.6v-1.7
	C930.2,349.5,930.9,348.8,931.8,348.8z"/>
<path class="st7" d="M1026.5,375.1c0,0,27.3-7.4,28.3-10.6s3.8,58.3-13.3,72.9s-39,13.8-50.8,4.8c-13.1-9.9-9.4-4-47-38.3
	c0,0-20-15.2-17.3-25s7.3-11.1,15.2-7.9c8.4,3.4,10.2,20.2,10.2,20.2l74.3,12.9L1026.5,375.1z"/>
<path class="st16" d="M865.5,457.9c-5.8-0.2-30.4-18.1-12.9-34.1s30-20.3,32-24s6.5-24.4,14.3-23.9s21,2.6,15.3,11.8
	s-12.9,16.7-13.3,19.7S893.6,459.1,865.5,457.9z"/>
<path class="st17" d="M1162.4,594.9c0-15.1-14.1-27.3-31.4-27.3s-31.4,12.2-31.4,27.3c0,4.5,2.8,8.8,5.1,12.6h52.8
	C1159.6,603.7,1162.4,599.5,1162.4,594.9z"/>
<path class="st17" d="M1178.5,607.5h-95c-4.8,0-8.7,2.9-8.7,6.5h112.4C1187.2,610.4,1183.3,607.5,1178.5,607.5z"/>
<path class="st18" d="M1052.1,457.9h157.9c7.5,0,13.5,6,13.5,13.5v108.9c0,7.5-6,13.5-13.5,13.5h-157.9c-7.5,0-13.5-6-13.5-13.5
	V471.4C1038.6,464,1044.6,457.9,1052.1,457.9z"/>
<path class="st19" d="M1137.6,525.9c0-2.8,1.9-5.2,4.6-5.9c-3.3-5.8-10.6-7.8-16.4-4.5c-5.8,3.3-7.8,10.6-4.5,16.4
	s10.6,7.8,16.4,4.5c1.9-1.1,3.4-2.6,4.5-4.5C1139.4,531.1,1137.6,528.6,1137.6,525.9z"/>
<path class="st20" d="M708.6,40h62.8c7.4,0,13.4,6,13.4,13.4v105.5c0,7.4-6,13.4-13.4,13.4h-62.8c-7.4,0-13.4-6-13.4-13.4V53.4
	C695.2,46,701.2,40,708.6,40z"/>
<path class="st21" d="M716.3,51.3h47.5c7.4,0,13.4,6,13.4,13.4v82.9c0,7.4-6,13.4-13.4,13.4h-47.5c-7.4,0-13.4-6-13.4-13.4V64.7
	C702.9,57.3,708.9,51.3,716.3,51.3z"/>
<path class="st20" d="M679.3,156.6v129.5c0,7.4-6,13.4-13.4,13.4H461.7c-7.4,0-13.4-6-13.4-13.4V156.6c0-7.4,6-13.4,13.4-13.4h204.2
	C673.3,143.2,679.3,149.2,679.3,156.6z"/>
<path class="st21" d="M659.5,170v102.8c0,7.4-6,13.4-13.4,13.4H481.5c-7.4,0-13.4-6-13.4-13.4V170c0-7.4,6-13.4,13.4-13.4h164.7
	C653.5,156.6,659.5,162.6,659.5,170z"/>
<path class="st20" d="M951.1,108.8v72.5c0,7.4-6,13.4-13.4,13.4H817.8c-7.4,0-13.4-6-13.4-13.4v-72.5c0-7.4,6-13.4,13.4-13.4h119.9
	C945.1,95.4,951.1,101.4,951.1,108.8z"/>
<path class="st21" d="M938.5,117.3v55.5c0,7.4-6,13.4-13.4,13.4h-94.8c-7.4,0-13.4-6-13.4-13.4v-55.5c0-7.4,6-13.4,13.4-13.4h94.8
	C932.5,103.9,938.5,109.9,938.5,117.3z"/>
<path class="st20" d="M803.5,316.2H766c-7.4,0-13.4-6-13.4-13.4v-68.1c0-7.4,6-13.4,13.4-13.4h37.4c7.4,0,13.4,6,13.4,13.4v68.1
	C816.8,310.2,810.9,316.2,803.5,316.2z"/>
<path class="st21" d="M798,308.1h-26.5c-7.4,0-13.4-6-13.4-13.4v-51.9c0-7.4,6-13.4,13.4-13.4H798c7.4,0,13.4,6,13.4,13.4v51.9
	C811.3,302.1,805.4,308.1,798,308.1z"/>
<path class="st22" d="M312.8,761c-2-3.1,10.8-169.6,13.6-174.4c0,0-9.2,181.1-5.6,186.8L312.8,761z"/>
<linearGradient id="SVGID_3_" gradientUnits="userSpaceOnUse" x1="909.442" y1="637.7646" x2="1027.9945" y2="637.7646" gradientTransform="matrix(0.97 -0.2429 -0.2429 -0.97 -423.6617 1523.4856)">
	<stop  offset="0" style="stop-color:#4ACFFF"/>
	<stop  offset="1" style="stop-color:#B2E2FF"/>
</linearGradient>
<path class="st23" d="M321.7,756.3l11.1-103.1c0,0,47.5-63.2,65.8-70S321.7,756.3,321.7,756.3z"/>
<linearGradient id="SVGID_4_" gradientUnits="userSpaceOnUse" x1="810.1983" y1="-48.7124" x2="772.4483" y2="-22.3924" gradientTransform="matrix(1 0 0 -1 -489.56 598.45)">
	<stop  offset="0" style="stop-color:#4ACFFF"/>
	<stop  offset="1" style="stop-color:#B2E2FF"/>
</linearGradient>
<path class="st24" d="M312.4,665.5c0,0-6.5-58.8-27.5-66.8l-21-8C263.9,590.7,268.2,627.7,312.4,665.5z"/>
<linearGradient id="SVGID_5_" gradientUnits="userSpaceOnUse" x1="853.4456" y1="-125.6743" x2="739.0356" y2="-77.6243" gradientTransform="matrix(1 0 0 -1 -489.56 598.45)">
	<stop  offset="0" style="stop-color:#4ACFFF"/>
	<stop  offset="1" style="stop-color:#B2E2FF"/>
</linearGradient>
<path class="st25" d="M311.7,711.1c0,0,1.8-52.5-65.4-83c0,0,13.8,76.5,63.5,119.9L311.7,711.1z"/>
<path class="st22" d="M327.1,581.1c0,0-23.8-31.9-30.7-58.3c0,0,15,1.5,22.5,14S327.1,581.1,327.1,581.1z"/>
<rect x="261.7" y="756.9" class="st26" width="115.7" height="29.6"/>
<polygon class="st26" points="354.9,858.2 284.2,858.2 271.8,786.5 367.3,786.5 "/>
<rect x="261.7" y="786.5" class="st27" width="115.7" height="3.1"/>
</svg>
