<?xml version="1.0" encoding="utf-8"?>
<!-- Generator: Adobe Illustrator 21.1.0, SVG Export Plug-In . SVG Version: 6.00 Build 0)  -->
<svg version="1.1" id="Layer_1" xmlns="http://www.w3.org/2000/svg" xmlns:xlink="http://www.w3.org/1999/xlink" x="0px" y="0px"
	 viewBox="0 0 127.8 23.8" style="enable-background:new 0 0 127.8 23.8;" xml:space="preserve">
<style type="text/css">
	.st0{fill:#FFFFFF;}
</style>
<g>
	<path class="st0" d="M128.5,20.4l-0.6-0.4L93.3,0l-1.8,3.1L120.7,20H0v1v0.8V22v0.8v1h127.4c0,0,0.4,0,0.8,0c0.3,0,0.3-0.6,0.3-0.6
		v-0.9l0,0c0,0,0,0,0,0c0,0,0-0.1,0-0.1c0,0,0,0,0,0v-0.9l0,0c0-0.1,0-0.1,0-0.1V20.4z"/>
</g>
</svg>
