<?xml version="1.0" encoding="utf-8"?>
<!-- Generator: Adobe Illustrator 21.1.0, SVG Export Plug-In . SVG Version: 6.00 Build 0)  -->
<svg version="1.1" id="Layer_1" xmlns="http://www.w3.org/2000/svg" xmlns:xlink="http://www.w3.org/1999/xlink" x="0px" y="0px"
	 viewBox="0 0 257.8 228" style="enable-background:new 0 0 257.8 228;" xml:space="preserve">
<style type="text/css">
	.st0{fill:#FFD4F9;}
	.st1{fill:url(#SVGID_1_);}
	.st2{fill:url(#SVGID_2_);}
	.st3{fill:#EC60FF;}
	.st4{fill:#CC53FF;}
	.st5{fill:#6641E0;}
	.st6{fill:#5737EA;}
	.st7{fill:url(#SVGID_3_);}
</style>
<title>t_2</title>
<path class="st0" d="M214.7,68.2c0,0-10-0.2-13-3c-3-2.8-18.2-16.4-18.2-16.4s-0.9-5.2-3.2-7.2c-2.3-2-9.6-3.6-9.6,0
	s5.4,9.3,8.4,9.9c3,0.6,18.4,22.2,21.8,22.6c3.4,0.5,13.8,0,13.8,0V68.2z"/>
<linearGradient id="SVGID_1_" gradientUnits="userSpaceOnUse" x1="1018.0694" y1="-441.7733" x2="1141.7675" y2="-441.7733" gradientTransform="matrix(1 0 0 -1 -960 -296.5)">
	<stop  offset="0" style="stop-color:#4ACFFF"/>
	<stop  offset="1" style="stop-color:#B2E2FF"/>
</linearGradient>
<path class="st1" d="M58.1,85.9v118.7c0,1.4,1.1,2.5,2.5,2.5l0,0h118.7c1.4,0,2.5-1.1,2.5-2.5v-59.4c0-1.4-1.1-2.5-2.5-2.5H157
	l-0.8,0.2c-1.3,0.4-2,1.8-1.6,3.1l1,3.1c1.1,3.4-0.8,7-4.2,8.1c-3.4,1.1-7-0.8-8.1-4.2c-0.4-1.3-0.4-2.7,0-3.9l1-3.1
	c0.4-1.3-0.3-2.7-1.6-3.1c-0.2-0.1-0.5-0.1-0.7-0.1h-19.8V123c0-1.4-1.1-2.5-2.5-2.4c-0.3,0-0.5,0-0.7,0.1l-3.1,1
	c-3.4,1.1-7-0.8-8.1-4.1c-1.1-3.4,0.8-7,4.1-8.1c1.3-0.4,2.7-0.4,3.9,0l3.1,1l0.8,0.2c1.4,0,2.5-1.1,2.5-2.5V85.9
	c0-1.4-1.1-2.5-2.5-2.5H60.5C59.2,83.5,58.1,84.6,58.1,85.9L58.1,85.9z"/>
<linearGradient id="SVGID_2_" gradientUnits="userSpaceOnUse" x1="1108.4397" y1="-407.578" x2="1108.9513" y2="-299.5902" gradientTransform="matrix(1 0 0 -1 -960 -296.5)">
	<stop  offset="0" style="stop-color:#4ACFFF"/>
	<stop  offset="1" style="stop-color:#B2E2FF"/>
</linearGradient>
<path class="st2" d="M177.4,75.3V32.2c0-1-0.8-1.8-1.8-1.8l0,0h-43.2c-1,0-1.8,0.8-1.8,1.8c0,0,0,0,0,0v13.7c-4.4-1.4-9,1-10.4,5.4
	s1,9,5.4,10.4c1.6,0.5,3.4,0.5,5,0v13.7c0,1,0.8,1.8,1.8,1.8l0,0h13.7c-1.4,4.4,1,9,5.4,10.4c4.4,1.4,9-1,10.4-5.4
	c0.5-1.6,0.5-3.4,0-5h13.7C176.7,77.1,177.5,76.3,177.4,75.3C177.4,75.3,177.4,75.3,177.4,75.3z"/>
<polygon class="st3" points="202.4,114.5 215.3,203.4 222.8,203.4 222.8,114.5 "/>
<path class="st3" d="M222.8,123.5c0,0,7.2,27.6,11.1,34.6c3.9,7,15,28.5,15,28.5l-8.7,4.5l-17.4-30.3L222.8,123.5z"/>
<polygon class="st4" points="222.8,123.5 222.8,161 223.9,162.5 "/>
<polygon class="st4" points="202.4,114.5 222.8,121.9 222.8,114.5 "/>
<path class="st0" d="M203.8,70.4c0,0-10-0.2-13-3c-3-2.8-18.2-16.4-18.2-16.4s-0.9-5.2-3.2-7.2c-2.3-2-9.6-3.6-9.6,0
	s5.4,9.3,8.4,9.9c3,0.6,18.4,22.2,21.8,22.6c3.4,0.5,13.8,0,13.8,0V70.4z"/>
<path class="st5" d="M219.4,62.1c0,0-4.7,5.9-6,6.6s-9.8,1.2-9.8,1.2v7c0,0,0.4,1.4,1.2,6.6s-5.8,31-5.8,31h24.4
	c0,0-3.2-14.6,0-24.3s5.2-14.4,4.4-17.4c-0.8-3-1.2-10.8-1.2-10.8L219.4,62.1z"/>
<path class="st0" d="M212.9,44.4c0,0,1.2,2.1,0,3.6s-3.4,2.2-2.9,3.9s1.1,7.9,1.4,8.1c0.3,0.2,2.1-0.3,2.1-0.3l2.2,6.7l9.2-9.6V44.4
	H212.9z"/>
<path class="st6" d="M215.2,39.4c-2.8,0.6-3.4,2.4-3,4c0.4,1.6,3.2,4.2,5.8,5.6s4.2,2.6,3.6,5.2c-0.6,2.6-1.2,3-2.4,6
	c-1.2,2.9,8.4,7.7,8.1,10.2c-0.5,4,4.3,3.8,5.9,0.4c1.6-3.4,3.8-22.6-3-27.4C223.2,38.5,219.8,38.4,215.2,39.4z"/>
<linearGradient id="SVGID_3_" gradientUnits="userSpaceOnUse" x1="1161.5941" y1="-473.3109" x2="1216.3591" y2="-472.7915" gradientTransform="matrix(1 0 0 -1 -960 -296.5)">
	<stop  offset="0" style="stop-color:#4ACFFF"/>
	<stop  offset="1" style="stop-color:#B2E2FF"/>
</linearGradient>
<path class="st7" d="M256.6,189.7c-4.5,0-8.2-3.7-8.2-8.2c0-4.5,3.7-8.2,8.2-8.2h1.2V161c0-0.9-0.8-1.7-1.7-1.7h-12.9
	c1.2-4.1-1.2-8.4-5.3-9.6c-4.1-1.2-8.4,1.2-9.6,5.3c-0.4,1.4-0.4,2.9,0,4.3h-12.9c-0.9,0-1.7,0.8-1.7,1.7v12.9
	c-4.1-1.2-8.4,1.2-9.6,5.3c-1.2,4.1,1.2,8.4,5.3,9.6c1.4,0.4,2.9,0.4,4.3,0v12.9c0,0.9,0.8,1.7,1.7,1.7h40.6c0.9,0,1.7-0.8,1.7-1.7
	v-12L256.6,189.7z"/>
</svg>
